<svg id="Capa_1" data-name="Capa 1" xmlns="http://www.w3.org/2000/svg" viewBox="0 0 1920 994"><path d="M979.44,821.92A14.56,14.56,0,0,0,994,807.36V785.05a92.84,92.84,0,0,0-63.92-88.36l-91-30V635.23A108.73,108.73,0,0,0,892,542V479.21A108.64,108.64,0,0,0,696.74,413.6a92.51,92.51,0,0,0-53-44.41l-91-30V307.72a108.73,108.73,0,0,0,53-93.26V151.7a108.7,108.7,0,1,0-217.39,0v62.75a108.73,108.73,0,0,0,52.95,93.27v31.51l-91,30a92.5,92.5,0,0,0-53,44.41A108.64,108.64,0,0,0,102,479.21V542a108.73,108.73,0,0,0,53,93.27v31.51l-91,30A92.84,92.84,0,0,0,0,785.05v22.31a14.56,14.56,0,0,0,29.12,0V785.05A63.79,63.79,0,0,1,73,724.35l85.25-28.06a55.74,55.74,0,0,0,104.8,0l85.24,28.05a63.7,63.7,0,0,1,39.86,38.32l-37.91,12.48a92.83,92.83,0,0,0-63.94,88.34V880.4H111.49V844a14.56,14.56,0,0,0-29.12,0V880.4H29.12v-5a14.56,14.56,0,0,0-29.12,0V895a14.56,14.56,0,0,0,14.56,14.57H286.32v112.91A14.56,14.56,0,0,0,300.88,1037H693.11a14.56,14.56,0,0,0,14.56-14.56V1003a14.56,14.56,0,1,0-29.12,0v4.89H625.31V922.42a14.56,14.56,0,0,0-29.12,0v85.46H397.81V922.42a14.56,14.56,0,0,0-29.12,0v85.46H315.45V863.48a63.76,63.76,0,0,1,43.91-60.68l85.24-28a55.75,55.75,0,0,0,104.8,0l85.24,28a63.76,63.76,0,0,1,43.91,60.68V935a14.57,14.57,0,0,0,29.13,0V909.53H979.44A14.56,14.56,0,0,0,994,895V875.38a14.56,14.56,0,0,0-29.12,0v5H911.63V844a14.56,14.56,0,1,0-29.12,0v36.43H707.67V863.48a92.83,92.83,0,0,0-63.93-88.34l-37.91-12.48a63.72,63.72,0,0,1,39.85-38.31l85.24-28.05a55.75,55.75,0,0,0,104.81,0L921,724.35a63.79,63.79,0,0,1,43.91,60.7v22.31a14.56,14.56,0,0,0,14.56,14.56ZM783.32,399.63a79.67,79.67,0,0,1,79.58,79.58V542a79.58,79.58,0,1,1-159.15,0V479.21a79.67,79.67,0,0,1,79.57-79.58ZM417.43,214.45V151.7a79.57,79.57,0,1,1,159.14,0v62.75a79.57,79.57,0,1,1-159.14,0ZM497,323.15a108.69,108.69,0,0,0,26.62-3.31v30a26.62,26.62,0,0,1-53.24,0v-30A108.69,108.69,0,0,0,497,323.15Zm-137.64,73.7,85.24-28.06a55.75,55.75,0,0,0,104.8,0l85.24,28.06a63.42,63.42,0,0,1,43.58,54.65,108.23,108.23,0,0,0-3.59,27.71V542c0,3.69.19,7.34.55,10.93H605.57a108.68,108.68,0,0,0-217.15,0h-69.6c.36-3.59.55-7.24.55-10.93V479.21a108.23,108.23,0,0,0-3.6-27.71,63.45,63.45,0,0,1,43.59-54.65ZM497,700a79.66,79.66,0,0,1-79.57-79.57V557.65a79.57,79.57,0,0,1,159.14,0v62.76A79.66,79.66,0,0,1,497,700ZM131.1,542V479.21a79.58,79.58,0,1,1,159.15,0V542a79.58,79.58,0,1,1-159.15,0ZM237.3,677.28a26.63,26.63,0,0,1-53.25,0V647.35a108.74,108.74,0,0,0,53.25,0Zm120.12,19.41-91-30V635.23A109.34,109.34,0,0,0,311.69,582H388.3v38.4a108.73,108.73,0,0,0,52.95,93.26v31.52l-25.43,8.37a92.72,92.72,0,0,0-58.4-56.88ZM497,782.35a26.65,26.65,0,0,1-26.62-26.62V725.79a108.7,108.7,0,0,0,53.24,0v29.94A26.65,26.65,0,0,1,497,782.35Zm139.57-85.66a92.69,92.69,0,0,0-58.39,56.87l-25.43-8.37V713.68a108.74,108.74,0,0,0,53-93.27V582h76.61a109.29,109.29,0,0,0,45.27,53.22v31.51Zm146.75,7.22a26.66,26.66,0,0,1-26.62-26.63V647.35a108.74,108.74,0,0,0,53.25,0v29.93A26.66,26.66,0,0,1,783.32,703.91Z" transform="translate(0 -43)"/><g id="Authorization_manager" data-name="Authorization manager"><path d="M1431,896.47l-22.88-206-18.64,6.18a15.73,15.73,0,0,1-9.92,0l-18.69-6.18-22.89,206L1384.5,943Z" transform="translate(0 -43)"/><path d="M1366.84,637.29l-2.36,21.21,20,6.65,20-6.65-2.36-21.21-17.66-14.13Z" transform="translate(0 -43)"/><path d="M1500.75,581.36l-35-8.74L1412,604.86,1459.67,643Z" transform="translate(0 -43)"/><path d="M1479.28,290,1447.5,250.2l-12.87,16.08a141,141,0,0,1-110.69,53.22h-81.19v47.25a141.75,141.75,0,0,0,283.5,0v-48.7A78.31,78.31,0,0,1,1479.28,290Z" transform="translate(0 -43)"/><path d="M1211.25,288h112.69A109.7,109.7,0,0,0,1410,246.62l25.2-31.5a15.75,15.75,0,0,1,24.6,0l44.1,55.13A47.09,47.09,0,0,0,1540.79,288h17V240.75A141.92,141.92,0,0,0,1416,99h-63a141.92,141.92,0,0,0-141.75,141.75Z" transform="translate(0 -43)"/><path d="M1620.75,666V623a233,233,0,0,0-52-24.69L1497.9,981h78.47a46.54,46.54,0,0,1-2.87-15.75v-252A47.24,47.24,0,0,1,1620.75,666Z" transform="translate(0 -43)"/><path d="M1447.5,528a171,171,0,0,1-126,0v18.9l63,37.8,63-37.8Z" transform="translate(0 -43)"/><path d="M1268.25,581.36,1309.33,643,1357,604.86l-53.72-32.24Z" transform="translate(0 -43)"/><path d="M1538.27,590.2l-4.85-1-57.07,85.58a15.74,15.74,0,0,1-10.69,6.82,15,15,0,0,1-2.41.19,15.7,15.7,0,0,1-9.84-3.45L1437,665.12l26.21,235.38a15.79,15.79,0,0,1-4.52,12.89l-63,63A15.78,15.78,0,0,1,1384.5,981h81.4Z" transform="translate(0 -43)"/><circle cx="1762.5" cy="764.75" r="15.75"/><path d="M1652.25,666H1668V555.75a94.5,94.5,0,0,1,189,0V666h15.75V555.75a110.25,110.25,0,0,0-220.5,0Z" transform="translate(0 -43)"/><path d="M1920,965.25v-252a15.75,15.75,0,0,0-15.75-15.75h-283.5A15.75,15.75,0,0,0,1605,713.25v252A15.75,15.75,0,0,0,1620.75,981h283.5A15.75,15.75,0,0,0,1920,965.25ZM1778.25,852.1v81.65a15.75,15.75,0,0,1-31.5,0V852.1a47.25,47.25,0,1,1,31.5,0Z" transform="translate(0 -43)"/><path d="M1038,981h126V807.75a15.75,15.75,0,0,1,31.5,0V981h75.6l-70.87-382.73A237.54,237.54,0,0,0,1038,822.48Z" transform="translate(0 -43)"/><path d="M1384.5,981a15.78,15.78,0,0,1-11.14-4.61l-63-63a15.79,15.79,0,0,1-4.52-12.89l26.21-235.38-16.46,13.18a15.7,15.7,0,0,1-9.84,3.45,15,15,0,0,1-2.41-.19,15.74,15.74,0,0,1-10.69-6.82l-57.07-85.6-4.85,1L1303.1,981Z" transform="translate(0 -43)"/></g></svg>